<svg width="33" height="42" viewBox="0 0 33 42" fill="none" xmlns="http://www.w3.org/2000/svg"><g opacity="0.8"><path d="M2.48909 25.1831C2.78807 25.2919 3.10063 25.3734 3.38601 25.4957C5.58753 26.4062 7.81623 27.276 9.70519 28.7844C10.3439 29.2872 10.9962 29.7764 11.6485 30.2657C13.0482 31.3257 14.6246 32.0459 16.2418 32.671C16.5 32.7662 16.7582 32.8885 16.9892 33.0516C17.7774 33.5816 18.5656 33.3098 19.0685 32.7798C21.1069 30.687 22.8464 28.3767 24.6402 26.0801C25.5507 24.9114 25.211 23.6339 24.0559 22.7098C22.2484 21.2829 20.4274 19.8424 18.5792 18.4699C17.4921 17.6681 16.3369 16.9886 15.209 16.2412C15.1139 16.1732 15.0052 16.1189 14.91 16.0373C14.5975 15.7791 14.5703 15.6432 14.8013 15.3035C15.5351 14.1755 16.3233 13.102 17.4785 12.3545C17.8182 12.1371 17.8726 11.8653 17.7095 11.512C17.2203 10.5199 17.3833 9.52788 17.7367 8.56301C18.1036 7.57097 18.5792 6.60611 18.9054 5.60047C19.1636 4.82586 19.4761 4.10561 19.979 3.48049C20.142 3.29023 20.2915 3.03203 20.6584 3.09998C20.509 3.41254 20.3459 3.68433 20.2508 3.9833C20.1149 4.3774 19.9518 4.79868 19.9246 5.20637C19.8567 6.33431 19.7751 7.51661 20.2372 8.53584C20.672 9.51429 20.7536 10.5471 21.0797 11.5391C21.4466 12.6399 22.031 13.6048 22.9143 14.3794C25.9176 17.0022 28.9209 19.625 31.7476 22.4516C32.033 22.737 32.3727 22.9952 32.6445 23.3078C33.0794 23.8242 33.1201 24.3134 32.7396 24.857C32.3319 25.4549 31.9107 26.0665 31.3943 26.5693C28.9481 28.9611 26.4476 31.3257 23.9879 33.7039C21.5554 36.0685 19.1364 38.4466 16.7039 40.8248C16.5951 40.9335 16.5 41.083 16.3641 41.151C16.1603 41.2597 15.8749 41.4364 15.739 41.3684C15.5623 41.2733 15.4264 40.9743 15.4128 40.7433C15.3313 39.3028 14.5567 38.3107 13.388 37.6313C12.7629 37.2643 12.0426 37.0469 11.3767 36.7479C11.3224 36.7208 11.2544 36.7072 11.2136 36.68C11.1185 36.5849 11.037 36.4761 10.9554 36.381C11.0913 36.3402 11.2408 36.2451 11.3631 36.2723C11.8795 36.4218 12.3824 36.6392 12.8988 36.7615C13.157 36.8159 13.4695 36.7751 13.7141 36.6936C13.8229 36.6528 13.9588 36.3538 13.9044 36.2315C13.7685 35.8918 13.5782 35.552 13.3472 35.2803C12.2872 34.03 11.0098 33.1059 9.40622 32.6846C8.67238 32.4944 7.91136 32.3449 7.16393 32.2498C6.57958 32.1818 6.44368 32.3857 6.56599 32.9564C6.59316 33.0651 6.56599 33.1739 6.56599 33.2826C6.45727 33.2554 6.33496 33.2554 6.23983 33.201C5.34292 32.6303 4.45959 32.0323 3.56267 31.448C3.46755 31.38 3.34524 31.3257 3.25011 31.2577C2.91037 30.9995 2.8696 30.7141 3.15499 30.388C3.50832 29.9939 3.86165 29.5862 4.25575 29.2193C4.79933 28.7029 4.86728 28.1049 4.45959 27.3439C3.99754 26.4606 3.30447 25.7947 2.46191 25.2919C2.46191 25.2511 2.48909 25.2239 2.50268 25.1831H2.48909Z" fill="white"/> <path d="M7.16845 4.67811C7.34512 4.75965 7.53537 4.82759 7.69845 4.93631C7.94306 5.11298 8.1605 5.33041 8.4187 5.49349C8.55459 5.57503 8.78562 5.61579 8.92152 5.54785C9.00305 5.50708 9.01664 5.24887 8.98946 5.0858C8.9487 4.6917 8.66331 4.4335 8.39152 4.17529C8.14691 3.95786 7.87511 3.72683 7.71204 3.44145C7.35871 2.81633 6.82871 2.40864 6.21718 2.10967C5.49693 1.75634 4.77668 1.41659 4.05642 1.07685C3.92053 1.00891 3.78463 0.913778 3.64874 0.83224C3.64874 0.791471 3.66232 0.750702 3.67591 0.696344C3.94771 0.669164 4.23309 0.587627 4.49129 0.628396C5.53769 0.805061 6.59769 0.981726 7.61691 1.23993C8.0246 1.34865 8.36434 1.6748 8.74485 1.89223C9.17972 2.15044 9.65536 2.35428 10.063 2.65325C10.593 3.03376 11.0959 3.44145 11.5443 3.9035C11.7074 4.08016 11.7753 4.41991 11.7753 4.67811C11.7753 5.43913 11.6666 6.18656 11.653 6.94758C11.653 7.26014 11.7482 7.59988 11.8705 7.89885C12.1015 8.41526 12.4141 8.48321 12.8761 8.15706C13.0256 8.04834 13.1479 7.91244 13.311 7.81732C13.4333 7.73578 13.5828 7.7086 13.7187 7.65424C13.7458 7.68142 13.7866 7.72219 13.8138 7.74937C13.7322 7.88526 13.6643 8.04834 13.5692 8.17065C12.8217 9.12192 12.02 10.046 11.3133 11.0245C10.6746 11.9078 10.1854 12.8998 9.98151 13.987C9.88638 14.4762 9.98151 14.9519 10.2805 15.3596C10.5251 15.6857 10.8105 15.9983 11.123 16.2565C14.3302 18.757 17.5373 21.2303 20.7445 23.7172C21.3153 24.1521 21.2609 24.5869 20.6222 24.9131C19.3312 25.5518 18.0266 26.1769 16.7356 26.8292C16.355 27.0195 16.0017 27.2641 15.6484 27.4951C15.2951 27.7397 14.901 27.7669 14.534 27.5495C12.4005 26.2313 10.2669 24.8995 8.11973 23.5949C5.76872 22.168 3.40412 20.7547 1.03952 19.3277C0.794911 19.1783 0.523118 19.056 0.292094 18.8929C-0.0476466 18.6483 -0.0884157 18.3085 0.156198 18.0231C2.58874 15.2101 4.99411 12.3698 7.75281 9.85576C8.44588 9.23064 8.45947 8.51039 8.36434 7.73578C8.24203 6.67579 7.73922 5.76528 7.14127 4.88195C7.11409 4.84118 7.1005 4.80042 7.07333 4.75965C7.08691 4.73247 7.11409 4.6917 7.12768 4.66452L7.16845 4.67811Z" fill="white"/></g></svg>